<?xml version="1.0" encoding="UTF-8" standalone="no"?>
<!-- Created with Inkscape (http://www.inkscape.org/) -->

<svg
   version="1.1"
   id="svg1"
   width="510"
   height="513"
   viewBox="0 0 510 513"
   sodipodi:docname="logo_arch1.svg"
   inkscape:version="1.4.2 (f4327f4, 2025-05-13)"
   xmlns:inkscape="http://www.inkscape.org/namespaces/inkscape"
   xmlns:sodipodi="http://sodipodi.sourceforge.net/DTD/sodipodi-0.dtd"
   xmlns="http://www.w3.org/2000/svg"
   xmlns:svg="http://www.w3.org/2000/svg">
  <defs
     id="defs1" />
  <sodipodi:namedview
     id="namedview1"
     pagecolor="#ffffff"
     bordercolor="#000000"
     borderopacity="0.25"
     inkscape:showpageshadow="2"
     inkscape:pageopacity="0.0"
     inkscape:pagecheckerboard="0"
     inkscape:deskcolor="#d1d1d1"
     showgrid="true"
     inkscape:zoom="4.2690058"
     inkscape:cx="292.92534"
     inkscape:cy="339.54041"
     inkscape:window-width="2560"
     inkscape:window-height="1334"
     inkscape:window-x="-11"
     inkscape:window-y="-11"
     inkscape:window-maximized="1"
     inkscape:current-layer="g2">
    <inkscape:grid
       id="grid11"
       units="px"
       originx="0"
       originy="0"
       spacingx="1"
       spacingy="1"
       empcolor="#0099e5"
       empopacity="0.30196078"
       color="#0099e5"
       opacity="0.14901961"
       empspacing="5"
       enabled="true"
       visible="true" />
  </sodipodi:namedview>
  <g
     inkscape:groupmode="layer"
     inkscape:label="Image"
     id="g1">
    <g
       id="g2">
      <path
         style="fill:#c48945"
         d="m 135.75096,338.18941 c 0.53927,-3.68682 0.35181,-7.95685 -2.19173,-10.84004 -2.27815,-2.58236 -4.14084,-3.37354 -7.77874,-3.57811 L 120.95641,323.5 176.74909,267.75 C 234.36587,210.1773 237,207.87309 237,215.04545 c 0,4.04078 3.91377,7.95455 7.95455,7.95455 3.85693,0 3.89152,1.56181 0.14617,6.59996 -1.5946,2.14502 -26.91049,27.86436 -56.25753,57.1541 l -53.35825,53.25405 z M 270.61218,316.7774 C 264.54382,314.0525 262.97742,306.24271 267.4,301.4 c 2.596,-2.84261 8.01052,-4.16145 12.58436,-0.64547 9.56923,7.35602 -0.40958,20.04737 -9.37218,16.02287 z M 267.25,293.22254 253,292.94509 252.9235,250.72254 c -0.17612,-97.14405 -0.18683,-96.91205 4.3918,-95.15506 1.53311,0.58831 1.69147,5.99295 1.92754,65.78674 L 259.5,286.5 l 37,0.5 37,0.5 v 2.5 2.5 l -26,0.5 c -14.3,0.275 -32.4125,0.37514 -40.25,0.22254 z"
         id="path6"
         sodipodi:nodetypes="ssscssssscsssssscssscccccss" />
      <path
         d="m 247.1678,208.85917 c -0.67532,0.19963 -1.55257,1.93185 -1.55257,1.93185 -0.61092,1.16918 0.18124,2.06204 0.65821,2.47851 1.94663,1.69974 1.68544,1.3091 3.40471,0.16365 0.98466,-0.65601 1.36907,-1.34443 -0.34981,-3.3903 0,0 -1.37782,-1.41509 -2.16054,-1.18371 z"
         style="display:inline;fill:#c48945"
         id="path11"
         sodipodi:nodetypes="scsscs" />
      <path
         style="display:inline;fill:#c48945"
         d="m 239.3165,218.78681 c -1.03056,-1.3831 -0.47641,-1.85097 0.0626,-2.24722 1.65243,-1.21483 0.3803,-0.34496 0.90144,-0.62576 0.57848,-0.3117 0.73404,-0.57491 2.07355,-0.98703 1.66923,-0.51357 3.39933,2.07068 1.27027,4.19974 -1.85723,1.85723 -2.02296,2.72674 -4.30782,-0.33973 z"
         id="path9"
         sodipodi:nodetypes="ssssss" />
      <path
         style="fill:#2a2a2a"
         d="m 102.4204,363.51795 c -5.630954,-2.39996 -8.321495,-7.97347 -6.371436,-13.19855 0.853585,-2.28714 7.475286,-9.47581 13.865996,-15.63399 5.107,-4.92117 10.0665,-9.18425 11.81699,-9.76196 6.19926,-2.04593 12.81186,2.01286 13.36657,8.20437 0.51235,5.71866 -0.32125,7.19222 -9.34852,16.52554 -13.41359,13.86835 -17.5513,16.32736 -23.3296,13.86459 z M 285.5,309.00326 v -5.99767 l 24.22695,-0.003 c 2.24853,0 16.12632,0.31717 23.02607,0.57673 1.43324,0.0539 2.95839,1.70593 2.95839,1.70593 2.57423,3.08532 1.00682,7.49077 -2.30444,8.74971 -1.39544,0.53055 -12.74537,0.96484 -25.22207,0.96509 l -22.6849,4.7e-4 z m -6.85857,-11.14412 c -1.04291,-0.60605 -3.56636,-0.80695 -5.75,-0.45777 C 269.45284,297.95122 269,297.78952 269,296.01182 269,294.2196 269.65492,294 275,294 c 5.73333,0 6,0.11111 6,2.5 0,2.85099 0.10476,2.79062 -2.35857,1.35914 z M 269,221.15499 c 0,-62.57506 0.0669,-64.90557 1.91157,-66.57496 2.69409,-2.43812 7.22659,-1.7068 8.80052,1.41997 0.97145,1.9299 1.26179,17.03758 1.27317,66.25 L 281,286 h -6 -6 z m -25.65499,-0.98373 c 3.42613,-3.78583 0.85419,-7.39994 -3.23021,-4.53912 C 238.12948,217.02271 238,216.95925 238,214.59566 238,211.50783 241.56175,208 244.69704,208 c 2.06328,0 2.18286,0.21945 1.08098,1.98383 -1.02854,1.64697 -0.94629,2.27647 0.48439,3.70715 1.34601,1.34601 1.98759,1.45902 2.93045,0.51616 1.78005,-1.78005 2.80714,-1.47332 2.80714,0.83831 0,2.92582 -4.40816,6.95455 -7.60953,6.95455 -2.55281,0 -2.60996,-0.1 -1.04546,-1.82874 z"
         id="path2"
         sodipodi:nodetypes="ssssssscccssssccsssssssssscccsssssssssss" />
    </g>
  </g>
</svg>
