<?xml version="1.0" encoding="UTF-8" standalone="no"?>
<!-- Created with Inkscape (http://www.inkscape.org/) -->

<svg
   version="1.1"
   id="svg1"
   width="343"
   height="304"
   viewBox="0 0 343 304"
   sodipodi:docname="logo_arch2.svg"
   inkscape:version="1.4.2 (f4327f4, 2025-05-13)"
   xmlns:inkscape="http://www.inkscape.org/namespaces/inkscape"
   xmlns:sodipodi="http://sodipodi.sourceforge.net/DTD/sodipodi-0.dtd"
   xmlns="http://www.w3.org/2000/svg"
   xmlns:svg="http://www.w3.org/2000/svg">
  <defs
     id="defs1" />
  <sodipodi:namedview
     id="namedview1"
     pagecolor="#ffffff"
     bordercolor="#000000"
     borderopacity="0.25"
     inkscape:showpageshadow="2"
     inkscape:pageopacity="0.0"
     inkscape:pagecheckerboard="0"
     inkscape:deskcolor="#d1d1d1"
     showgrid="true"
     inkscape:zoom="5.09396"
     inkscape:cx="136.14163"
     inkscape:cy="132.60803"
     inkscape:window-width="2560"
     inkscape:window-height="1334"
     inkscape:window-x="-11"
     inkscape:window-y="-11"
     inkscape:window-maximized="1"
     inkscape:current-layer="g14">
    <inkscape:grid
       id="grid16"
       units="px"
       originx="0"
       originy="0"
       spacingx="1"
       spacingy="1"
       empcolor="#0099e5"
       empopacity="0.30196078"
       color="#0099e5"
       opacity="0.14901961"
       empspacing="5"
       enabled="true"
       visible="true" />
  </sodipodi:namedview>
  <g
     inkscape:groupmode="layer"
     inkscape:label="Image"
     id="g1">
    <g
       id="g14"
       transform="translate(-13.881282,-3.3315064)">
      <path
         style="fill:#a6a6a6"
         d="m 108.029,150.54699 -1.25,-0.43603 V 125.80128 101.4916 l 1.25,-0.45968 c 0.6875,-0.25282 1.8125,-0.26347 2.5,-0.0237 l 1.25,0.43602 v 24.30968 24.30968 l -1.25,0.45968 c -0.6875,0.25283 -1.8125,0.26347 -2.5,0.0237 z m 60,0 -1.25,-0.43603 V 125.80128 101.4916 l 1.25,-0.45968 c 0.6875,-0.25282 1.8125,-0.26347 2.5,-0.0237 l 1.25,0.43602 v 24.30968 24.30968 l -1.25,0.45968 c -0.6875,0.25283 -1.8125,0.26347 -2.5,0.0237 z"
         id="path16" />
      <path
         style="fill:#c48946"
         d="m 60.623989,238.41351 c -0.657478,-0.64613 -1.70127,-2.34042 -1.705471,-3.26224 -0.0069,-1.50325 0.803218,-3.05903 1.895086,-4.09229 1.271402,-1.20316 3.443657,-1.94149 4.879563,-1.94071 14.606876,0.008 73.123963,0.15936 73.123963,0.15936 l 79.08493,-0.32126 c 0,0 16.31893,-7.90765 24.59936,-12.38764 17.28125,-9.34976 22.35065,-11.26348 22.35065,-11.26348 0,0 4.43502,4.44479 5.73624,5.01612 0,0 -0.007,-0.45772 0.28374,0.73917 0.18205,0.74943 -23.839,14.42944 -23.839,14.42944 -13.71121,6.9701 -21.68649,10.78412 -23.04416,11.50715 l -5.59054,2.97726 -79.40522,0.27808 c 0,0 -68.880871,-0.23649 -74.199742,-0.24247 -1.589804,-0.002 -3.03708,-0.48371 -4.169399,-1.59649 z m 1.179698,-76.88964 c -0.414126,-0.50644 -0.688464,-1.17184 -0.709167,-1.80583 -0.0216,-0.66139 0.341554,-1.38845 0.622911,-1.7912 0.581696,-0.83268 1.428507,-1.44182 2.149852,-1.46154 4.395463,-0.12014 74.520467,-0.18767 74.520467,-0.18767 l 75.89125,-0.5 21.5,-11.63897 c 11.825,-6.40144 24.1383,-12.73638 28.24976,-14.96452 0,0 5.5182,-3.24942 6.95799,-2.89176 1.03091,0.25609 1.73328,1.23008 1.73328,1.23008 l 2.02826,1.83739 -0.005,0.59703 c -0.0158,1.88575 -26.94178,16.1586 -49.05072,27.42596 l -11.58643,5.90479 H 139.1337 c 0,0 -68.163095,-0.18757 -75.336819,-0.32968 -0.805771,-0.016 -1.477554,-0.79351 -1.993184,-1.42408 z m 3.7313,-71.981038 c 0,0 -3.037641,-0.342733 -4.396977,-1.103065 -0.694446,-0.388432 -1.233002,-1.075081 -1.575576,-1.793259 -0.450181,-0.943769 -0.819454,-1.737383 -0.736745,-2.779747 0.07412,-0.934052 0.489016,-1.794003 1.078156,-2.522604 0.506975,-0.626987 0.576847,-0.593331 1.903035,-1.379442 2.036228,-1.206993 33.129257,-0.584525 74.51679,-0.687088 l 76.45537,0.04908 -1.82179,2.619651 -0.055,2.472417 0.0305,2.304927 0.006,2.231311 -1.75979,0.722655 C 207.54448,90.348837 73.674369,90.185022 65.534987,89.542832 Z"
         id="path15"
         sodipodi:nodetypes="ssssccscssssccssssssccsssccssccssscssssscccccssc" />
      <path
         style="fill:#2a2a2a"
         d="M 58.778995,159.2629 V 87.13477 l 1.432616,1.536725 c 0.86332,0.926057 3.400718,1.606132 5.638813,1.606132 h 3.928571 v 32.500003 33.05525 l -3.582109,-0.0173 c 0,0 -2.127676,-0.2262 -3.217725,0.31233 -0.666553,0.3293 -1.595903,1.30437 -1.595903,1.30437 0,0 -0.884131,1.17521 -0.936542,2.0505 -0.0417,0.69644 0.415022,1.9495 0.415022,1.9495 0,0 0.846233,1.37922 1.612283,1.8454 1.005477,0.61188 3.166642,0.55525 3.166642,0.55525 l 4.259793,-0.0347 -0.121461,31.97945 v 32.5 h -3.277493 c -1.802622,0 -4.277622,0.70051 -5.5,1.5567 -0.870495,0.60972 -2.205155,2.30282 -2.205155,2.30282 z m 150.000005,36.51473 0.14723,-31.78837 5.06261,-0.0982 c 2.00986,-0.8478 2.79205,-1.07931 3.8559,-1.64866 l 1.93426,-1.03518 v 32.5 l -0.21243,32.82815 -2.11373,1.25879 c 0,0 -3.7318,0.14896 -5.1081,0.067 l -3.37364,0.0126 z m 59,11.5 -2,-2 v -34.25728 -34.25729 l 4.5,-2.7181 4.5,-2.7181 v 37.40396 37.40395 l -1.57143,1.57143 c -2.05847,2.05846 -3.01723,1.98277 -5.42857,-0.42857 z m -59,-84.5 V 90.277627 l 1.33241,-0.392622 c 0.38346,-0.112996 1.66944,-0.509336 1.56427,-0.7597 l -0.004,-4.293401 c 0,0 -0.66899,-3.365996 1.95039,-4.831123 3.82215,-2.137881 9.86684,-5.392976 24.65653,-13.236128 14.3,-7.583464 26.88762,-14.395372 27.9725,-15.137572 2.44333,-1.671557 5.73819,-1.73876 7.3275,-0.149454 l 1.2,1.2 v 37.871428 37.871425 l -1.62894,-1.62893 c -0.89592,-0.89592 -2.24592,-1.37806 -3,-1.07143 -0.75409,0.30663 -2.04606,0.83065 -2.87106,1.1645 l -1.5,0.60698 V 94.777627 62.063649 l -1.25,0.500385 c -0.6875,0.275212 -10.925,5.687452 -22.75,12.027201 l -21.5,11.526816 -0.26346,33.061069 -0.22665,32.72979 -5.50119,3.18737 c -1.63482,0.0719 -1.55884,-0.0184 -2.95904,0.01 l -2.4515,0.0491 z"
         id="path14"
         sodipodi:nodetypes="ccssccccscscsccccsscccccsccccsccscccccccssccscccssscccssscccssccccscc" />
    </g>
  </g>
</svg>
